<svg width="43" height="43" viewBox="0 0 43 43" fill="none" xmlns="http://www.w3.org/2000/svg">
<path d="M5.375 5.375H5.85579C6.70465 5.375 7.12981 5.375 7.47603 5.52815C7.78128 5.66317 8.04227 5.88057 8.23047 6.15624C8.44357 6.46838 8.52052 6.8852 8.67412 7.71719L12.5417 28.6667H31.2141C32.026 28.6667 32.4333 28.6667 32.7696 28.5232C33.0668 28.3965 33.323 28.1912 33.5133 27.9301C33.7285 27.635 33.8197 27.24 34.0017 26.4506L34.0031 26.445L36.8146 14.2616L36.8153 14.2591C37.0916 13.0615 37.2301 12.4613 37.078 11.9905C36.9445 11.5774 36.6638 11.2272 36.2913 11.0043C35.8663 10.75 35.2525 10.75 34.0214 10.75H9.85417M32.25 37.625C31.2605 37.625 30.4583 36.8229 30.4583 35.8333C30.4583 34.8438 31.2605 34.0417 32.25 34.0417C33.2395 34.0417 34.0417 34.8438 34.0417 35.8333C34.0417 36.8229 33.2395 37.625 32.25 37.625ZM14.3333 37.625C13.3438 37.625 12.5417 36.8229 12.5417 35.8333C12.5417 34.8438 13.3438 34.0417 14.3333 34.0417C15.3228 34.0417 16.125 34.8438 16.125 35.8333C16.125 36.8229 15.3228 37.625 14.3333 37.625Z" stroke="white" stroke-width="5" stroke-linecap="round" stroke-linejoin="round"/>
</svg>
