<svg width="27" height="22" viewBox="0 0 27 22" fill="none" xmlns="http://www.w3.org/2000/svg">
<path d="M26.9339 2.85678C26.8217 2.28967 26.5686 1.75368 26.1995 1.30307C26.1245 1.20846 26.0461 1.1243 25.9603 1.03892C25.3036 0.378686 24.39 0 23.4538 0H3.54607C2.59944 0 1.70912 0.369141 1.03913 1.03929C0.954334 1.12388 0.875707 1.20888 0.797871 1.30649C0.430313 1.75521 0.1784 2.29046 0.0688711 2.85836C0.0230977 3.08137 0 3.31246 0 3.54623V17.5281C0 18.0145 0.0988242 18.4881 0.294732 18.9384C0.464273 19.3383 0.721512 19.7174 1.03892 20.0347C1.11887 20.1143 1.19828 20.1877 1.28308 20.2592C1.91769 20.7848 2.72125 21.074 3.54607 21.074H23.4538C24.284 21.074 25.0867 20.7837 25.7197 20.2534C25.8042 20.185 25.8827 20.1131 25.9611 20.0347C26.2679 19.7282 26.5117 19.376 26.687 18.9877L26.7101 18.9323C26.9024 18.4906 27 18.0184 27 17.5281V3.54623C27 3.31552 26.9777 3.0829 26.9339 2.85678ZM1.83637 2.26315C1.88652 2.18974 1.95054 2.11438 2.03222 2.03207C2.4377 1.6268 2.97543 1.40379 3.54602 1.40379H23.4538C24.0294 1.40379 24.5673 1.62717 24.9682 2.03286C25.0375 2.10284 25.1036 2.18051 25.1613 2.25814L25.3136 2.46275L14.6876 11.7237C14.36 12.0109 13.9382 12.169 13.4998 12.169C13.0658 12.169 12.6444 12.0113 12.3129 11.7241L1.69752 2.46538L1.83637 2.26315ZM1.41091 17.6515C1.40516 17.6134 1.40384 17.5711 1.40384 17.5281V3.83574L9.64992 11.0293L1.48706 18.1464L1.41091 17.6515ZM24.5162 19.3879C24.197 19.572 23.8295 19.6697 23.4538 19.6697H3.54607C3.17023 19.6697 2.80283 19.572 2.48389 19.3879L2.15019 19.1945L10.5843 11.8444L11.5086 12.6484C12.0631 13.1298 12.7702 13.3951 13.4999 13.3951C14.2324 13.3951 14.9406 13.1298 15.4947 12.6484L16.4187 11.844L24.8499 19.1949L24.5162 19.3879ZM25.5958 17.5281C25.5958 17.5704 25.595 17.6123 25.5897 17.6496L25.5166 18.1491L17.3502 11.0331L25.5958 3.83922V17.5281Z" fill="#17252D"/>
</svg>
