<svg width="24" height="30" viewBox="0 0 24 30" fill="none" xmlns="http://www.w3.org/2000/svg">
<path d="M12 0C5.78719 0 0.75 5.03719 0.75 11.25C0.75 13.6964 1.55203 15.9412 2.88516 17.7797C2.90906 17.8237 2.91281 17.873 2.94 17.9152L10.44 29.1652C10.7878 29.6869 11.3737 30 12 30C12.6263 30 13.2122 29.6869 13.56 29.1652L21.06 17.9152C21.0877 17.873 21.0909 17.8237 21.1148 17.7797C22.448 15.9412 23.25 13.6964 23.25 11.25C23.25 5.03719 18.2128 0 12 0ZM12 15C9.92906 15 8.25 13.3209 8.25 11.25C8.25 9.17906 9.92906 7.5 12 7.5C14.0709 7.5 15.75 9.17906 15.75 11.25C15.75 13.3209 14.0709 15 12 15Z" fill="#17252D"/>
</svg>
