<svg width="164" height="42" viewBox="0 0 164 42" fill="none" xmlns="http://www.w3.org/2000/svg">
<g filter="url(#filter0_d_51_113)">
<path d="M45.3252 24H41.3008L41.3262 21.0293H45.3252C46.3239 21.0293 47.166 20.805 47.8516 20.3564C48.5371 19.8994 49.0534 19.235 49.4004 18.3633C49.7559 17.4915 49.9336 16.4378 49.9336 15.2021V14.3008C49.9336 13.3529 49.832 12.5192 49.6289 11.7998C49.4342 11.0804 49.1423 10.4753 48.7529 9.98438C48.3636 9.49349 47.8854 9.12533 47.3184 8.87988C46.7513 8.62598 46.0996 8.49902 45.3633 8.49902H41.2246V5.51562H45.3633C46.599 5.51562 47.7288 5.72721 48.7529 6.15039C49.7855 6.5651 50.6784 7.16178 51.4316 7.94043C52.1849 8.71908 52.7646 9.65007 53.1709 10.7334C53.5856 11.8083 53.793 13.0059 53.793 14.3262V15.2021C53.793 16.514 53.5856 17.7116 53.1709 18.7949C52.7646 19.8783 52.1849 20.8092 51.4316 21.5879C50.6868 22.3581 49.7939 22.9548 48.7529 23.3779C47.7204 23.7926 46.5778 24 45.3252 24ZM43.459 5.51562V24H39.6504V5.51562H43.459ZM62.6543 24.2539C61.5879 24.2539 60.6315 24.0846 59.7852 23.7461C58.9388 23.3991 58.2194 22.9209 57.627 22.3115C57.043 21.7021 56.5944 20.9954 56.2812 20.1914C55.9681 19.3789 55.8115 18.5156 55.8115 17.6016V17.0938C55.8115 16.0527 55.9596 15.1006 56.2559 14.2373C56.5521 13.374 56.9753 12.625 57.5254 11.9902C58.084 11.3555 58.7611 10.8688 59.5566 10.5303C60.3522 10.1833 61.2493 10.0098 62.248 10.0098C63.2214 10.0098 64.0846 10.1706 64.8379 10.4922C65.5911 10.8138 66.2217 11.2708 66.7295 11.8633C67.2458 12.4557 67.6351 13.1667 67.8975 13.9961C68.1598 14.8171 68.291 15.7311 68.291 16.7383V18.2617H57.373V15.8242H64.6982V15.5449C64.6982 15.0371 64.6051 14.5843 64.4189 14.1865C64.2412 13.7803 63.9704 13.4587 63.6064 13.2217C63.2425 12.9847 62.777 12.8662 62.21 12.8662C61.7275 12.8662 61.3128 12.972 60.9658 13.1836C60.6188 13.3952 60.3353 13.6914 60.1152 14.0723C59.9036 14.4531 59.7428 14.9017 59.6328 15.418C59.5312 15.9258 59.4805 16.4844 59.4805 17.0938V17.6016C59.4805 18.1517 59.5566 18.6595 59.709 19.125C59.8698 19.5905 60.0941 19.9925 60.3818 20.3311C60.6781 20.6696 61.0335 20.932 61.4482 21.1182C61.8714 21.3044 62.3496 21.3975 62.8828 21.3975C63.543 21.3975 64.1566 21.2705 64.7236 21.0166C65.2992 20.7542 65.7943 20.3607 66.209 19.8359L67.9863 21.7656C67.6986 22.1803 67.305 22.5781 66.8057 22.959C66.3148 23.3398 65.7223 23.653 65.0283 23.8984C64.3343 24.1354 63.543 24.2539 62.6543 24.2539ZM76.6953 24.2539C75.6289 24.2539 74.6725 24.0846 73.8262 23.7461C72.9798 23.3991 72.2604 22.9209 71.668 22.3115C71.084 21.7021 70.6354 20.9954 70.3223 20.1914C70.0091 19.3789 69.8525 18.5156 69.8525 17.6016V17.0938C69.8525 16.0527 70.0007 15.1006 70.2969 14.2373C70.5931 13.374 71.0163 12.625 71.5664 11.9902C72.125 11.3555 72.8021 10.8688 73.5977 10.5303C74.3932 10.1833 75.2904 10.0098 76.2891 10.0098C77.2624 10.0098 78.1257 10.1706 78.8789 10.4922C79.6322 10.8138 80.2627 11.2708 80.7705 11.8633C81.2868 12.4557 81.6761 13.1667 81.9385 13.9961C82.2008 14.8171 82.332 15.7311 82.332 16.7383V18.2617H71.4141V15.8242H78.7393V15.5449C78.7393 15.0371 78.6462 14.5843 78.46 14.1865C78.2822 13.7803 78.0114 13.4587 77.6475 13.2217C77.2835 12.9847 76.818 12.8662 76.251 12.8662C75.7686 12.8662 75.3538 12.972 75.0068 13.1836C74.6598 13.3952 74.3763 13.6914 74.1562 14.0723C73.9447 14.4531 73.7839 14.9017 73.6738 15.418C73.5723 15.9258 73.5215 16.4844 73.5215 17.0938V17.6016C73.5215 18.1517 73.5977 18.6595 73.75 19.125C73.9108 19.5905 74.1351 19.9925 74.4229 20.3311C74.7191 20.6696 75.0745 20.932 75.4893 21.1182C75.9124 21.3044 76.3906 21.3975 76.9238 21.3975C77.584 21.3975 78.1976 21.2705 78.7646 21.0166C79.3402 20.7542 79.8353 20.3607 80.25 19.8359L82.0273 21.7656C81.7396 22.1803 81.346 22.5781 80.8467 22.959C80.3558 23.3398 79.7633 23.653 79.0693 23.8984C78.3753 24.1354 77.584 24.2539 76.6953 24.2539ZM88.0703 12.9043V29.2812H84.4141V10.2637H87.8037L88.0703 12.9043ZM96.7666 16.9795V17.2461C96.7666 18.2448 96.6481 19.1715 96.4111 20.0264C96.1826 20.8812 95.8441 21.626 95.3955 22.2607C94.9469 22.887 94.3883 23.3779 93.7197 23.7334C93.0596 24.0804 92.2979 24.2539 91.4346 24.2539C90.5967 24.2539 89.8688 24.0846 89.251 23.7461C88.6331 23.4076 88.1126 22.9336 87.6895 22.3242C87.2747 21.7064 86.9404 20.9912 86.6865 20.1787C86.4326 19.3662 86.238 18.4945 86.1025 17.5635V16.8652C86.238 15.8665 86.4326 14.9525 86.6865 14.123C86.9404 13.2852 87.2747 12.5615 87.6895 11.9521C88.1126 11.3343 88.6289 10.8561 89.2383 10.5176C89.8561 10.179 90.5798 10.0098 91.4092 10.0098C92.2809 10.0098 93.0469 10.1748 93.707 10.5049C94.3757 10.835 94.9342 11.3089 95.3828 11.9268C95.8398 12.5446 96.1826 13.2809 96.4111 14.1357C96.6481 14.9906 96.7666 15.9385 96.7666 16.9795ZM93.0977 17.2461V16.9795C93.0977 16.3955 93.0469 15.8581 92.9453 15.3672C92.8522 14.8678 92.6999 14.432 92.4883 14.0596C92.2852 13.6872 92.0143 13.3994 91.6758 13.1963C91.3457 12.9847 90.9437 12.8789 90.4697 12.8789C89.9704 12.8789 89.543 12.9593 89.1875 13.1201C88.8405 13.2809 88.557 13.5137 88.3369 13.8184C88.1169 14.123 87.9518 14.487 87.8418 14.9102C87.7318 15.3333 87.6641 15.8115 87.6387 16.3447V18.1094C87.681 18.7357 87.7995 19.2985 87.9941 19.7979C88.1888 20.2887 88.4893 20.6781 88.8955 20.9658C89.3018 21.2536 89.835 21.3975 90.4951 21.3975C90.9775 21.3975 91.3838 21.2917 91.7139 21.0801C92.0439 20.86 92.3105 20.5596 92.5137 20.1787C92.7253 19.7979 92.8734 19.3577 92.958 18.8584C93.0511 18.359 93.0977 17.8216 93.0977 17.2461ZM106.504 15.8877H101.756L101.73 13.2725H105.717C106.419 13.2725 106.995 13.1836 107.443 13.0059C107.892 12.8197 108.226 12.5531 108.446 12.2061C108.675 11.8506 108.789 11.4189 108.789 10.9111C108.789 10.3356 108.679 9.87012 108.459 9.51465C108.247 9.15918 107.913 8.90104 107.456 8.74023C107.007 8.57943 106.428 8.49902 105.717 8.49902H103.076V24H99.2676V5.51562H105.717C106.792 5.51562 107.752 5.61719 108.599 5.82031C109.453 6.02344 110.177 6.33236 110.77 6.74707C111.362 7.16178 111.815 7.68652 112.128 8.32129C112.441 8.94759 112.598 9.69238 112.598 10.5557C112.598 11.3174 112.424 12.0199 112.077 12.6631C111.739 13.3063 111.201 13.8311 110.465 14.2373C109.737 14.6436 108.785 14.8678 107.608 14.9102L106.504 15.8877ZM106.339 24H100.715L102.2 21.0293H106.339C107.007 21.0293 107.553 20.9235 107.977 20.7119C108.4 20.4919 108.713 20.1956 108.916 19.8232C109.119 19.4508 109.221 19.0234 109.221 18.541C109.221 17.9993 109.128 17.5296 108.941 17.1318C108.764 16.734 108.476 16.4294 108.078 16.2178C107.68 15.9977 107.156 15.8877 106.504 15.8877H102.835L102.86 13.2725H107.431L108.307 14.3008C109.432 14.2839 110.338 14.4827 111.023 14.8975C111.717 15.3037 112.221 15.8327 112.534 16.4844C112.856 17.1361 113.017 17.8343 113.017 18.5791C113.017 19.764 112.758 20.7627 112.242 21.5752C111.726 22.3792 110.968 22.9844 109.97 23.3906C108.979 23.7969 107.769 24 106.339 24ZM119.504 4.5V24H115.835V4.5H119.504ZM130.65 20.7119V10.2637H134.307V24H130.866L130.65 20.7119ZM131.057 17.8936L132.136 17.8682C132.136 18.7822 132.03 19.6328 131.818 20.4199C131.607 21.1986 131.289 21.8757 130.866 22.4512C130.443 23.0182 129.91 23.4626 129.267 23.7842C128.623 24.0973 127.866 24.2539 126.994 24.2539C126.326 24.2539 125.708 24.1608 125.141 23.9746C124.582 23.7799 124.1 23.4795 123.693 23.0732C123.296 22.6585 122.982 22.1296 122.754 21.4863C122.534 20.8346 122.424 20.0518 122.424 19.1377V10.2637H126.08V19.1631C126.08 19.5693 126.127 19.9121 126.22 20.1914C126.321 20.4707 126.461 20.6992 126.639 20.877C126.816 21.0547 127.024 21.1816 127.261 21.2578C127.506 21.334 127.777 21.3721 128.073 21.3721C128.826 21.3721 129.419 21.2197 129.851 20.915C130.291 20.6104 130.6 20.1956 130.777 19.6709C130.964 19.1377 131.057 18.5452 131.057 17.8936ZM143.422 24.2539C142.355 24.2539 141.399 24.0846 140.553 23.7461C139.706 23.3991 138.987 22.9209 138.395 22.3115C137.811 21.7021 137.362 20.9954 137.049 20.1914C136.736 19.3789 136.579 18.5156 136.579 17.6016V17.0938C136.579 16.0527 136.727 15.1006 137.023 14.2373C137.32 13.374 137.743 12.625 138.293 11.9902C138.852 11.3555 139.529 10.8688 140.324 10.5303C141.12 10.1833 142.017 10.0098 143.016 10.0098C143.989 10.0098 144.852 10.1706 145.605 10.4922C146.359 10.8138 146.989 11.2708 147.497 11.8633C148.013 12.4557 148.403 13.1667 148.665 13.9961C148.927 14.8171 149.059 15.7311 149.059 16.7383V18.2617H138.141V15.8242H145.466V15.5449C145.466 15.0371 145.373 14.5843 145.187 14.1865C145.009 13.7803 144.738 13.4587 144.374 13.2217C144.01 12.9847 143.545 12.8662 142.978 12.8662C142.495 12.8662 142.08 12.972 141.733 13.1836C141.386 13.3952 141.103 13.6914 140.883 14.0723C140.671 14.4531 140.51 14.9017 140.4 15.418C140.299 15.9258 140.248 16.4844 140.248 17.0938V17.6016C140.248 18.1517 140.324 18.6595 140.477 19.125C140.637 19.5905 140.862 19.9925 141.149 20.3311C141.446 20.6696 141.801 20.932 142.216 21.1182C142.639 21.3044 143.117 21.3975 143.65 21.3975C144.311 21.3975 144.924 21.2705 145.491 21.0166C146.067 20.7542 146.562 20.3607 146.977 19.8359L148.754 21.7656C148.466 22.1803 148.073 22.5781 147.573 22.959C147.082 23.3398 146.49 23.653 145.796 23.8984C145.102 24.1354 144.311 24.2539 143.422 24.2539Z" fill="black"/>
<path d="M24.5 9.49996C22.6667 6.99996 16.2 4.79996 5 16C10.2 35.2 24.5 23 31 14.5C27.3333 16.3333 19.7 18.9 18.5 14.5C17.3 10.1 22 9.33329 24.5 9.49996Z" fill="black" stroke="black"/>
</g>
<defs>
<filter id="filter0_d_51_113" x="0.441895" y="0" width="167.558" height="50" filterUnits="userSpaceOnUse" color-interpolation-filters="sRGB">
<feFlood flood-opacity="0" result="BackgroundImageFix"/>
<feColorMatrix in="SourceAlpha" type="matrix" values="0 0 0 0 0 0 0 0 0 0 0 0 0 0 0 0 0 0 127 0" result="hardAlpha"/>
<feOffset dy="4"/>
<feGaussianBlur stdDeviation="2"/>
<feComposite in2="hardAlpha" operator="out"/>
<feColorMatrix type="matrix" values="0 0 0 0 0 0 0 0 0 0 0 0 0 0 0 0 0 0 0.25 0"/>
<feBlend mode="normal" in2="BackgroundImageFix" result="effect1_dropShadow_51_113"/>
<feBlend mode="normal" in="SourceGraphic" in2="effect1_dropShadow_51_113" result="shape"/>
</filter>
</defs>
</svg>
