<svg width="27" height="27" viewBox="0 0 27 27" fill="none" xmlns="http://www.w3.org/2000/svg">
<g clip-path="url(#clip0_45_226)">
<path d="M13.5 0C6.04405 0 0 6.0442 0 13.4998C0 20.9557 6.04405 27 13.5 27C20.9559 27 27 20.9557 27 13.4998C27 6.0442 20.956 0 13.5 0ZM13.4998 21.1946C9.84809 21.193 7.23922 20.6969 7.30013 20.2423C7.63188 17.7581 9.63515 17.5192 10.9073 16.5013C11.4785 16.0443 11.7561 16.1586 11.7561 15.3968C11.7561 15.1303 11.7561 14.635 11.7561 14.1781C11.4132 13.7974 11.2885 13.8449 10.9985 12.3501C10.4126 12.3501 10.4503 11.5883 10.1739 10.9129C9.9582 10.3864 10.1218 10.1591 10.3027 10.0604C10.2051 9.53991 10.2667 7.7923 11.0163 6.88268L10.8981 6.05744C10.8981 6.05744 11.1338 6.11655 11.7232 5.99827C12.3128 5.88083 13.7273 5.52735 14.5526 6.23436C16.5331 6.52556 17.059 8.15221 16.6727 10.0484C16.8624 10.1395 17.0512 10.3628 16.8257 10.9129C16.5495 11.5883 16.5872 12.3501 16.0012 12.3501C15.7114 13.8449 15.5866 13.7974 15.2437 14.1781C15.2437 14.6351 15.2437 15.1303 15.2437 15.3968C15.2437 16.1586 15.5211 16.0443 16.0923 16.5013C17.3646 17.5191 19.3677 17.758 19.6997 20.2423C19.7604 20.6969 17.1516 21.193 13.4998 21.1946Z" fill="#17252D"/>
</g>
<defs>
<clipPath id="clip0_45_226">
<rect width="27" height="27" fill="white"/>
</clipPath>
</defs>
</svg>
