<svg width="25" height="25" viewBox="0 0 25 25" fill="none" xmlns="http://www.w3.org/2000/svg">
<path d="M9.17792 4.51016C9.17792 4.51016 8.92011 3.90625 8.52636 3.90625C8.13886 3.90625 7.9373 4.08516 7.80292 4.20859C7.66855 4.33203 5.42011 6.17969 5.42011 6.17969C5.42011 6.17969 4.7662 6.75078 4.8162 7.825C4.85839 8.89922 5.06855 10.4281 6.15917 12.5578C7.24199 14.6828 9.95214 17.9297 11.6646 19.0711C11.6646 19.0711 13.2514 20.2883 14.7279 20.7828C15.1568 20.918 16.0146 21.0938 16.2146 21.0938C16.4178 21.0938 16.7764 21.0938 17.1881 20.793C17.6068 20.4891 19.956 18.6 19.956 18.6C19.956 18.6 20.531 18.0805 19.8631 17.4766C19.192 16.8727 17.1545 15.5297 16.7185 15.1766C16.2818 14.818 15.66 14.9758 15.3912 15.2188C15.1232 15.4633 14.6443 15.8656 14.5857 15.9164C14.4982 15.9836 14.2584 16.2016 13.9896 16.093C13.6475 15.9578 12.2443 15.1961 10.9435 13.4164C9.65058 11.6383 9.50839 11.057 9.31542 10.4289C9.2827 10.3361 9.28224 10.2349 9.31414 10.1417C9.34604 10.0486 9.40842 9.96892 9.4912 9.91563C9.68495 9.78125 10.3982 9.18672 10.3982 9.18672C10.3982 9.18672 10.86 8.73125 10.667 8.19453C10.474 7.65781 9.17792 4.51016 9.17792 4.51016Z" fill="#17252D"/>
</svg>
