<svg width="138" height="25" viewBox="0 0 138 25" fill="none" xmlns="http://www.w3.org/2000/svg">
<path d="M126.949 12.7593C123.658 10.9936 120.832 8.45385 118.719 5.39062L115.001 0L111.282 5.39062C109.169 8.45385 106.342 10.9936 103.05 12.7593C99.7586 14.5275 96.0127 15.5277 91.9994 15.5301C87.986 15.5277 84.2423 14.5275 80.9486 12.7593C77.6592 10.9936 74.8318 8.45385 72.7187 5.39062L69.0003 0L65.2815 5.39062C63.1687 8.45385 60.341 10.9936 57.052 12.7593C53.7583 14.5275 50.0145 15.5277 46.0012 15.5301C41.9879 15.5277 38.2419 14.5275 34.9504 12.7593C31.6589 10.9936 28.8312 8.45385 26.7181 5.39062L22.9996 0L19.2812 5.39062C17.1675 8.45385 14.3423 10.9936 11.0508 12.7593C7.75927 14.5275 4.01332 15.5277 0 15.5301V24.564C5.52782 24.5664 10.7651 23.1729 15.3266 20.7197C18.1659 19.1941 20.7493 17.2592 22.9991 14.9959C25.2513 17.2594 27.8323 19.1941 30.6716 20.7197C35.2353 23.1729 40.4707 24.5664 46.0006 24.564C51.5282 24.5664 56.7636 23.1729 61.3273 20.7197C64.1665 19.1941 66.75 17.2592 68.9997 14.9959C71.2495 17.2594 73.833 19.1941 76.6722 20.7197C81.2359 23.1729 86.471 24.5664 91.9988 24.564C97.5288 24.5664 102.764 23.1729 107.328 20.7197C110.167 19.1941 112.748 17.2592 115 14.9959C117.25 17.2594 119.834 19.1941 122.673 20.7197C127.234 23.1729 132.472 24.5664 137.999 24.564V15.5301C133.987 15.5277 130.241 14.5275 126.949 12.7593Z" fill="#00E0FF"/>
</svg>
